<svg width="309" height="100" viewBox="0 0 309 100" fill="none" xmlns="http://www.w3.org/2000/svg">
<rect x="1" y="1" width="306.27" height="98" rx="9" stroke="#E48735" stroke-width="2"/>
<path d="M62.0659 51.1931C62.094 49.0111 62.6736 46.8716 63.7507 44.9738C64.8278 43.076 66.3675 41.4814 68.2265 40.3386C67.0455 38.652 65.4876 37.264 63.6764 36.2848C61.8652 35.3056 59.8506 34.7623 57.7926 34.6979C53.4027 34.2371 49.1468 37.3247 46.9098 37.3247C44.6295 37.3247 41.1852 34.7436 37.4763 34.8199C35.0773 34.8974 32.7392 35.5951 30.69 36.8448C28.6408 38.0946 26.9502 39.8539 25.783 41.9512C20.7271 50.7048 24.4983 63.5696 29.3415 70.6454C31.7647 74.1102 34.5966 77.9804 38.3022 77.8432C41.9283 77.6928 43.2826 75.5309 47.6596 75.5309C51.996 75.5309 53.2666 77.8432 57.0473 77.7559C60.9383 77.6927 63.3898 74.2757 65.728 70.7781C67.469 68.3093 68.8087 65.5808 69.6975 62.6936C67.4369 61.7374 65.5078 60.1371 64.1507 58.092C62.7936 56.0468 62.0685 53.6475 62.0659 51.1931V51.1931Z" stroke="#E48735" stroke-width="2"/>
<path d="M54.9247 30.0444C57.0463 27.4976 58.0914 24.2241 57.8384 20.9191C54.5971 21.2595 51.6031 22.8086 49.453 25.2577C48.4017 26.4541 47.5965 27.846 47.0835 29.3539C46.5704 30.8617 46.3596 32.4558 46.463 34.0452C48.0842 34.0619 49.6881 33.7105 51.1538 33.0175C52.6195 32.3245 53.9088 31.3079 54.9247 30.0444Z" stroke="#E48735" stroke-width="2"/>
<path d="M108.85 68.7512L108.62 68.0717H107.902H95.5282H94.811L94.581 68.7509L91.8394 76.8463H88.7395L99.7381 46.3826H103.779L114.778 76.8463H111.589L108.85 68.7512ZM95.8629 64.701L95.4139 66.0227H96.8097H106.618H108.014L107.565 64.7012L102.73 50.4607L102.5 49.7822H101.783H101.648H100.931L100.701 50.4605L95.8629 64.701Z" fill="#E48735" stroke="#E48735" stroke-width="2"/>
<path d="M131.637 77.0938H131.611L131.585 77.0952C130.268 77.1641 128.958 76.8606 127.805 76.2196C126.652 75.5785 125.703 74.6257 125.066 73.4703L124.781 72.9529H124.19H124.078H123.078V73.9529V84.6761H120.22V55.1776H122.922V58.1143V59.1143H123.922H124.012H124.588L124.877 58.6154C125.547 57.4583 126.518 56.5044 127.687 55.8554C128.856 55.2063 130.179 54.8863 131.516 54.9294L131.532 54.9299H131.548C134.266 54.93 136.471 55.9936 138.014 57.8585C139.572 59.7415 140.515 62.518 140.515 66.0132C140.515 69.5204 139.576 72.2971 138.031 74.1767C136.502 76.0378 134.32 77.0938 131.637 77.0938ZM137.521 66.0132C137.521 63.455 136.861 61.2327 135.596 59.6266C134.315 57.9985 132.461 57.0709 130.266 57.0709C128.092 57.0709 126.253 58.025 124.982 59.6548C123.725 61.265 123.058 63.4835 123.058 66.0132C123.058 68.5627 123.724 70.787 124.982 72.3981C126.255 74.0294 128.095 74.9759 130.266 74.9759C132.459 74.9759 134.314 74.0558 135.596 72.4264C136.862 70.8194 137.521 68.5913 137.521 66.0132Z" fill="#E48735" stroke="#E48735" stroke-width="2"/>
<path d="M157.688 77.094H157.662L157.636 77.0953C156.318 77.1643 155.008 76.8608 153.855 76.2197C152.702 75.5786 151.753 74.6259 151.117 73.4705L150.832 72.953H150.241H150.128H149.128V73.953V84.6763H146.27V55.1777H148.973V58.1144V59.1144H149.973H150.062H150.639L150.927 58.6155C151.598 57.4584 152.569 56.5046 153.738 55.8555C154.907 55.2065 156.23 54.8865 157.566 54.9296L157.582 54.9301H157.598C160.316 54.9301 162.521 55.9937 164.064 57.8587C165.622 59.7416 166.565 62.5181 166.565 66.0133C166.565 69.5206 165.627 72.2972 164.082 74.1768C162.552 76.0379 160.37 77.094 157.688 77.094ZM163.572 65.0133H163.537C163.386 62.8762 162.743 61.0197 161.647 59.6267C160.366 57.9987 158.512 57.071 156.317 57.071C154.143 57.071 152.304 58.0251 151.032 59.655C149.776 61.2652 149.108 63.4837 149.108 66.0133C149.108 68.5629 149.775 70.7872 151.032 72.3982C152.305 74.0295 154.145 74.976 156.317 74.976C158.51 74.976 160.364 74.0559 161.647 72.4265C162.912 70.8195 163.572 68.5914 163.572 66.0133V65.0133Z" fill="#E48735" stroke="#E48735" stroke-width="2"/>
<path d="M180.922 69.801C181.279 71.9639 182.366 73.7241 184.025 75.0044C185.964 76.5008 188.748 77.3873 192.184 77.3873C195.878 77.3873 198.771 76.4732 200.717 74.9406C202.636 73.4284 203.716 71.2541 203.716 68.5099C203.716 66.3545 203.1 64.7791 201.808 63.5427C200.473 62.2643 198.32 61.2553 195.058 60.4838L195.05 60.4819L195.05 60.4818L191.473 59.6036L191.471 59.6033C189.341 59.0769 187.696 58.4396 186.573 57.5493C185.385 56.607 184.816 55.4078 184.816 53.953C184.816 52.168 185.66 50.6653 187.051 49.6391C188.422 48.6281 190.294 48.0946 192.408 48.0946C194.524 48.0946 196.398 48.6229 197.807 49.6765C198.999 50.5679 199.812 51.8026 200.147 53.2899H203.11C202.811 51.2384 201.793 49.515 200.221 48.2424C198.38 46.7518 195.726 45.8414 192.477 45.8414C189.189 45.8414 186.47 46.7541 184.595 48.2474C182.736 49.7278 181.665 51.8067 181.665 54.2899C181.665 56.3257 182.277 57.887 183.502 59.1165C184.757 60.3762 186.739 61.3716 189.627 62.0693L180.922 69.801ZM180.922 69.801L183.951 69.8011C184.822 73.1926 188.362 75.1342 192.544 75.1342C194.753 75.1342 196.729 74.5651 198.181 73.5283C199.647 72.4816 200.585 70.9439 200.585 69.1176C200.585 67.5757 200.02 66.285 198.817 65.266C197.67 64.2949 195.994 63.6135 193.839 63.084L193.835 63.0829L189.628 62.0695L180.922 69.801Z" fill="#E48735" stroke="#E48735" stroke-width="2"/>
<path d="M210.32 57.025H207.879V55.1777H210.32H211.32V54.1777V49.5765H214.201V54.1777V55.1777H215.201H218.702V57.025H215.201H214.201V58.025V71.0733C214.201 72.2122 214.452 73.2598 215.18 74.0138C215.915 74.7752 216.949 75.0449 218.081 75.0449H218.09L218.098 75.0448C218.292 75.0414 218.486 75.0346 218.679 75.0242V76.8983C218.122 76.9642 217.561 76.9921 216.999 76.9817L216.99 76.9815H216.981C214.67 76.9815 213.33 76.5396 212.546 75.7865C211.772 75.0435 211.32 73.7847 211.32 71.5914V58.025V57.025H210.32Z" fill="#E48735" stroke="#E48735" stroke-width="2"/>
<path d="M240.783 67.0133H240.812V66.0133C240.812 63.3222 240.197 61.0483 238.94 59.4238C237.658 57.7664 235.785 56.8897 233.534 56.8897C231.281 56.8897 229.409 57.7741 228.129 59.4335C226.873 61.06 226.259 63.333 226.259 66.0133C226.259 68.7135 226.873 70.9876 228.13 72.6097C229.413 74.2652 231.286 75.1343 233.534 75.1343C235.783 75.1343 237.656 74.2653 238.939 72.6099C240.039 71.1923 240.647 69.2764 240.783 67.0133ZM223.309 66.0133C223.309 62.4839 224.346 59.715 226.089 57.8379C227.826 55.9686 230.352 54.8867 233.534 54.8867C236.729 54.8867 239.255 55.9691 240.989 57.8375C242.73 59.7139 243.762 62.4826 243.762 66.0133C243.762 69.556 242.734 72.324 240.997 74.1968C239.268 76.0612 236.742 77.1399 233.534 77.1399C230.328 77.1399 227.803 76.0613 226.074 74.1968C224.337 72.324 223.309 69.556 223.309 66.0133Z" fill="#E48735" stroke="#E48735" stroke-width="2"/>
<path d="M252.626 63.8616V76.8463H249.768L249.768 55.1777H252.401V58.2063V59.2063H253.401H253.514H254.203C254.193 59.2172 254.183 59.2283 254.172 59.2393C253.593 59.8624 253.156 60.6033 252.89 61.4114C252.63 62.2006 252.54 63.0356 252.626 63.8616ZM256.245 57.8021C255.527 58.0978 254.875 58.532 254.327 59.0793L254.484 58.448C254.742 57.4127 255.349 56.4978 256.202 55.857C257.055 55.2162 258.102 54.8886 259.169 54.9293L259.189 54.9301L259.21 54.93C259.431 54.9293 259.652 54.9398 259.871 54.9615V57.4216C259.482 57.3719 259.088 57.3518 258.694 57.3615C257.856 57.3325 257.021 57.4827 256.245 57.8021Z" fill="#E48735" stroke="#E48735" stroke-width="2"/>
<path d="M281.997 71.8945C280.929 74.9595 277.568 77.1399 273.08 77.1399C269.869 77.1399 267.362 76.0711 265.651 74.2278C263.932 72.376 262.921 69.637 262.921 66.1256C262.921 62.6025 263.938 59.7987 265.647 57.8887C267.344 55.9902 269.801 54.8867 272.875 54.8867C275.91 54.8867 278.294 55.9217 279.926 57.7076C281.568 59.5036 282.542 62.1606 282.542 65.5614V66.2259H266.825H265.825V67.2259V67.477C265.743 68.4743 265.871 69.4779 266.201 70.4231C266.535 71.3828 267.07 72.2602 267.77 72.9971C268.47 73.7341 269.319 74.3137 270.26 74.6974C271.181 75.073 272.17 75.2526 273.164 75.225C274.505 75.3367 275.847 75.02 276.997 74.3195C277.968 73.7281 278.759 72.8893 279.292 71.8945L281.997 71.8945ZM265.917 62.8305H265.848V63.7984C265.848 63.81 265.848 63.8215 265.848 63.8331L266.848 63.8318V64.8305H278.681H279.627L279.679 63.8861C279.731 62.9653 279.591 62.0438 279.269 61.1795C278.948 60.3152 278.451 59.5267 277.81 58.8635C277.169 58.2004 276.398 57.6768 275.545 57.3258C274.696 56.9765 273.785 56.8055 272.868 56.8233C271.949 56.8196 271.039 56.997 270.189 57.3452C269.334 57.6953 268.558 58.211 267.904 58.8627C267.25 59.5144 266.732 60.2892 266.379 61.1423C266.154 61.6847 266 62.2519 265.917 62.8305Z" fill="#E48735" stroke="#E48735" stroke-width="2"/>
<path d="M96.6679 22.0108H96.7037L96.7394 22.0083C97.6948 21.9397 98.6535 22.084 99.5463 22.4309C100.439 22.7777 101.244 23.3183 101.903 24.0138C102.561 24.7092 103.057 25.5422 103.355 26.4526C103.653 27.363 103.744 28.3281 103.624 29.2783L103.616 29.341V29.4041C103.616 31.9291 102.935 33.7802 101.799 34.9934C100.671 36.1975 98.974 36.9026 96.6679 36.9026H91.5664V22.0108H96.6679ZM92.19 35.5137V36.5137H93.19H96.3462C97.2724 36.5645 98.1986 36.4105 99.0587 36.0624C99.9284 35.7105 100.709 35.1691 101.343 34.4776C101.977 33.786 102.449 32.9618 102.724 32.0649C102.986 31.2133 103.064 30.3165 102.954 29.4335C103.054 28.5549 102.97 27.6644 102.704 26.8196C102.425 25.9297 101.952 25.1125 101.32 24.4268C100.687 23.7411 99.9109 23.2037 99.0465 22.8532C98.191 22.5063 97.27 22.351 96.3483 22.3979H93.19H92.19V23.3979V35.5137Z" fill="#E48735" stroke="#E48735" stroke-width="2"/>
<path d="M118.607 31.4278L118.598 31.5239L118.608 31.62C118.676 32.3197 118.597 33.026 118.376 33.6934C118.154 34.3608 117.796 34.9745 117.324 35.4952C116.851 36.0159 116.275 36.432 115.632 36.7167C114.99 37.0014 114.294 37.1485 113.591 37.1485C112.888 37.1485 112.193 37.0014 111.55 36.7167C110.907 36.432 110.331 36.0159 109.859 35.4952C109.386 34.9745 109.028 34.3608 108.807 33.6934C108.586 33.026 108.507 32.3197 108.575 31.62L107.58 31.5231L108.575 31.4278C108.508 30.7288 108.588 30.0236 108.81 29.3573C109.032 28.691 109.39 28.0784 109.862 27.5587C110.335 27.0391 110.91 26.6239 111.552 26.3398C112.195 26.0557 112.889 25.9089 113.591 25.9089C114.293 25.9089 114.988 26.0557 115.63 26.3398C116.272 26.6239 116.848 27.0391 117.32 27.5587C117.792 28.0784 118.151 28.691 118.373 29.3573C118.594 30.0236 118.674 30.7288 118.607 31.4278ZM118.015 30.5231H117.962C117.84 29.4199 117.504 28.4452 116.912 27.6835C116.119 26.6637 114.958 26.144 113.595 26.144C112.23 26.144 111.068 26.6632 110.277 27.6847C109.513 28.67 109.178 30.011 109.178 31.5231C109.178 33.0446 109.512 34.3889 110.277 35.3748C111.07 36.3975 112.232 36.9119 113.595 36.9119C114.958 36.9119 116.119 36.3925 116.912 35.3711C117.678 34.3851 118.015 33.0418 118.015 31.5231V30.5231Z" fill="#E48735" stroke="#E48735" stroke-width="2"/>
<path d="M127.044 35.8819L126.759 36.9023H125.695L122.732 26.1548H123.179L125.281 35.1104L125.462 35.8819H126.255H126.443H127.044ZM129.463 27.5137L129.83 26.1548H130.711L131.077 27.5137H130.341H130.142H129.463ZM133.447 35.8819H134.098H134.297H135.09L135.27 35.1094L137.362 26.1548H137.773L134.823 36.9023H133.733L133.447 35.8819Z" fill="#E48735" stroke="#E48735" stroke-width="2"/>
<path d="M143.556 30.4939V36.9022H143.04L143.04 26.1547H143.462V27.1798V28.1798H144.062C143.934 28.4026 143.827 28.638 143.745 28.883C143.57 29.4011 143.506 29.9498 143.556 30.4939ZM146.722 26.2819C147.221 25.9901 147.797 25.8586 148.373 25.9054L148.451 25.9117L148.529 25.9059C149 25.8705 149.472 25.9414 149.912 26.1135C150.351 26.2855 150.747 26.5543 151.068 26.8998C151.39 27.2453 151.629 27.6588 151.769 28.1095C151.909 28.5602 151.946 29.0366 151.877 29.5036L151.866 29.5763V29.6499V36.9021H151.351V30.2817C151.351 29.1356 151.105 28.0835 150.42 27.3145C149.719 26.5282 148.723 26.2186 147.623 26.2144C147.32 26.2022 147.018 26.225 146.722 26.2819Z" fill="#E48735" stroke="#E48735" stroke-width="2"/>
<path d="M157.875 21.1785H158.391V36.9023H157.875V21.1785Z" fill="#E48735" stroke="#E48735" stroke-width="2"/>
<path d="M173.917 31.428L173.908 31.5239L173.917 31.6199C173.985 32.3197 173.906 33.026 173.685 33.6934C173.464 34.3608 173.106 34.9745 172.633 35.4952C172.161 36.0159 171.584 36.4319 170.942 36.7167C170.299 37.0014 169.603 37.1485 168.9 37.1485C168.197 37.1485 167.502 37.0014 166.859 36.7167C166.216 36.4319 165.64 36.0159 165.168 35.4952C164.695 34.9745 164.337 34.3608 164.116 33.6934C163.894 33.026 163.815 32.3197 163.883 31.6199L162.888 31.5231L163.883 31.428C163.817 30.7289 163.897 30.0236 164.118 29.3572C164.34 28.6909 164.699 28.0783 165.171 27.5586C165.643 27.0389 166.219 26.6237 166.861 26.3396C167.504 26.0555 168.198 25.9087 168.9 25.9087C169.603 25.9087 170.297 26.0555 170.939 26.3396C171.581 26.6237 172.157 27.0389 172.63 27.5586C173.102 28.0783 173.46 28.6909 173.682 29.3572C173.904 30.0236 173.984 30.7289 173.917 31.428ZM173.324 30.5231H173.27C173.149 29.42 172.812 28.4452 172.22 27.6836C171.427 26.6638 170.266 26.144 168.904 26.144C167.538 26.144 166.377 26.6633 165.585 27.6847C164.821 28.67 164.487 30.0111 164.487 31.5231C164.487 33.0447 164.82 34.3889 165.585 35.3749C166.378 36.3975 167.541 36.9119 168.904 36.9119C170.266 36.9119 171.427 36.3926 172.22 35.3711C172.986 34.3852 173.324 33.0418 173.324 31.5231V30.5231Z" fill="#E48735" stroke="#E48735" stroke-width="2"/>
<path d="M179.453 27.5027C180.066 26.568 181.342 25.9087 183.262 25.9087C184.706 25.9087 185.693 26.2685 186.306 26.7976C186.897 27.3088 187.26 28.0818 187.26 29.1925V36.9023H186.838V36.1108V35.1108H186.164C186.223 35.0144 186.279 34.9154 186.33 34.8139C186.573 34.3347 186.717 33.8115 186.753 33.2756L185.755 33.208H186.755V32.1423V31.2368V31.0763V30.2928V29.1925C186.755 28.2839 186.444 27.4463 185.729 26.8607C185.047 26.3017 184.133 26.0858 183.145 26.0858C181.838 26.0858 180.542 26.4936 179.867 27.5027H179.453ZM179.417 32.3873C179.713 32.1516 180.104 31.9474 180.599 31.7917C180.429 31.8727 180.268 31.9664 180.12 32.0745C179.408 32.5921 179.091 33.3429 179.091 34.1797C179.091 35.0798 179.497 35.8283 180.165 36.3216C180.79 36.7837 181.589 36.9866 182.405 36.9944C182.551 37.0074 182.698 37.0122 182.844 37.009C182.523 37.0932 182.19 37.1288 181.856 37.1134L181.781 37.1099L181.707 37.1177C181.311 37.1589 180.91 37.1166 180.531 36.9936C180.152 36.8706 179.804 36.6695 179.507 36.4034C179.211 36.1373 178.974 35.8121 178.811 35.4486C178.648 35.0858 178.563 34.6929 178.561 34.2953C178.562 33.4282 178.869 32.8228 179.417 32.3873Z" fill="#E48735" stroke="#E48735" stroke-width="2"/>
<path d="M196.858 25.9433H196.881L196.904 25.9423C197.47 25.9162 198.033 26.041 198.534 26.303C198.227 26.2371 197.905 26.2034 197.571 26.2034C196.228 26.2034 195.078 26.7363 194.289 27.7387C193.521 28.7125 193.165 30.0357 193.165 31.523C193.165 33.0174 193.516 34.3443 194.283 35.3201C195.073 36.3262 196.225 36.8538 197.571 36.8538C197.914 36.8538 198.244 36.819 198.559 36.7507C198.044 37.0093 197.472 37.1343 196.895 37.113L196.876 37.1124H196.858C195.524 37.1124 194.494 36.5999 193.776 35.7058C193.039 34.7881 192.566 33.3836 192.566 31.523C192.566 29.6703 193.043 28.2679 193.783 27.3503C194.505 26.4549 195.536 25.9433 196.858 25.9433ZM202.002 31.5341C202.002 30.2581 201.729 29.0998 201.16 28.1798H201.955V27.1798V21.1785H202.471V36.9023H202.06V35.8883V34.8883H201.165C201.733 33.9697 202.002 32.8121 202.002 31.5341Z" fill="#E48735" stroke="#E48735" stroke-width="2"/>
<path d="M224.907 31.4278L224.898 31.5239L224.907 31.62C224.975 32.3197 224.896 33.026 224.675 33.6934C224.454 34.3608 224.096 34.9745 223.624 35.4952C223.151 36.0159 222.575 36.432 221.932 36.7167C221.289 37.0014 220.594 37.1485 219.891 37.1485C219.188 37.1485 218.493 37.0014 217.85 36.7167C217.207 36.432 216.631 36.0159 216.158 35.4952C215.686 34.9745 215.328 34.3608 215.107 33.6934C214.886 33.026 214.807 32.3198 214.875 31.62L213.879 31.5231L214.875 31.4278C214.808 30.7288 214.888 30.0236 215.11 29.3573C215.331 28.691 215.69 28.0784 216.162 27.5587C216.634 27.0391 217.21 26.6239 217.852 26.3398C218.494 26.0557 219.189 25.9089 219.891 25.9089C220.593 25.9089 221.288 26.0557 221.93 26.3398C222.572 26.6239 223.148 27.0391 223.62 27.5587C224.092 28.0784 224.451 28.691 224.672 29.3573C224.894 30.0236 224.974 30.7288 224.907 31.4278ZM224.315 31.5231C224.315 30.0091 223.977 28.6682 223.211 27.6835C222.419 26.6637 221.258 26.144 219.895 26.144C218.53 26.144 217.368 26.6632 216.576 27.6847C215.813 28.67 215.478 30.011 215.478 31.5231C215.478 33.0446 215.812 34.3889 216.576 35.3748C217.37 36.3975 218.532 36.9119 219.895 36.9119C221.257 36.9119 222.419 36.3925 223.212 35.3711C223.977 34.3851 224.315 33.0418 224.315 31.5231Z" fill="#E48735" stroke="#E48735" stroke-width="2"/>
<path d="M230.794 30.4939V36.9022H230.278V26.1547H230.7V27.1798V28.1798H231.299C231.171 28.4026 231.065 28.638 230.983 28.883C230.808 29.4011 230.744 29.9499 230.794 30.4939ZM233.96 26.2819C234.459 25.9901 235.035 25.8586 235.611 25.9054L235.689 25.9117L235.767 25.9059C236.238 25.8705 236.71 25.9414 237.15 26.1135C237.589 26.2855 237.984 26.5543 238.306 26.8998C238.627 27.2453 238.867 27.6588 239.007 28.1095C239.147 28.5602 239.184 29.0366 239.115 29.5036L239.104 29.5763V29.6499V36.9021H238.589V30.2817C238.589 29.1356 238.343 28.0835 237.657 27.3145C236.957 26.5282 235.961 26.2186 234.86 26.2144C234.558 26.2022 234.256 26.225 233.96 26.2819Z" fill="#E48735" stroke="#E48735" stroke-width="2"/>
<path d="M254.023 36.0321C254.574 36.6189 255.332 36.8003 256.082 36.8066V36.959C255.957 36.9668 255.833 36.9714 255.708 36.9728C254.387 36.9721 253.718 36.7305 253.369 36.423C253.052 36.144 252.801 35.6314 252.801 34.5309V27.3318V26.3318H251.801H250.778V26.2127H251.801H252.801V25.2127V22.981H253.32V25.2128V26.2128H254.32H256.082V26.3319H254.32H253.32V27.3319V33.8867C253.32 34.6621 253.475 35.4489 254.023 36.0321Z" fill="#E48735" stroke="#E48735" stroke-width="2"/>
<path d="M261.518 21.1785H262.012V27.2033V28.2033H262.556C262.438 28.4064 262.339 28.6201 262.259 28.842C262.067 29.3721 261.991 29.9367 262.034 30.4984V36.9022H261.518L261.518 21.1785ZM266.284 26.2256C265.981 26.204 265.678 26.2171 265.38 26.264C265.88 25.9916 266.448 25.8704 267.017 25.9165L267.084 25.922L267.152 25.9183C267.622 25.8927 268.092 25.9712 268.528 26.1482C268.964 26.3251 269.356 26.5962 269.676 26.942C269.995 27.2878 270.234 27.6999 270.376 28.1488C270.518 28.5977 270.559 29.0723 270.497 29.539L270.488 29.6052V29.6721V36.9023H269.969V30.2927C269.969 29.1368 269.702 28.0911 269.018 27.328C268.325 26.5553 267.351 26.2334 266.284 26.2256Z" fill="#E48735" stroke="#E48735" stroke-width="2"/>
<path d="M278.942 36.6518C279.481 36.8834 280.062 37.0037 280.648 37.0059C281.426 37.0865 282.211 36.9407 282.908 36.5854C283.441 36.3138 283.905 35.9288 284.269 35.4603L284.567 35.4603C284.279 35.8556 283.922 36.2002 283.509 36.4757C282.695 37.0196 281.715 37.2598 280.741 37.1542L280.674 37.1469L280.607 37.1487C279.912 37.167 279.221 37.034 278.583 36.7587C277.945 36.4835 277.374 36.0726 276.911 35.5547C276.447 35.0368 276.102 34.4242 275.899 33.7595C275.696 33.0948 275.64 32.3939 275.735 31.7054L275.754 31.5707L275.736 31.4359C275.643 30.743 275.7 30.0384 275.903 29.3696C276.106 28.7008 276.451 28.0834 276.913 27.5593C277.376 27.0352 277.946 26.6166 278.584 26.3318C279.222 26.0471 279.915 25.9028 280.614 25.9087V25.9088H280.622C282.155 25.9088 283.287 26.4241 284.046 27.2833C284.803 28.1384 285.287 29.4437 285.308 31.2128H284.685L284.743 30.4262C284.785 29.8592 284.708 29.2898 284.517 28.7544C284.326 28.219 284.025 27.7295 283.633 27.3174C283.242 26.9053 282.768 26.5797 282.243 26.3614C281.724 26.1455 281.165 26.0394 280.603 26.0498C280.04 26.0451 279.482 26.1519 278.961 26.364C278.435 26.5783 277.956 26.896 277.554 27.2981C277.152 27.7003 276.835 28.1789 276.621 28.7056C276.407 29.2324 276.3 29.7966 276.307 30.3652L277.307 30.3522V31.2128H276.307V32.2128V32.3145C276.264 32.9065 276.341 33.5013 276.535 34.0626C276.733 34.6381 277.05 35.1656 277.465 35.6115C277.879 36.0574 278.382 36.4117 278.942 36.6518Z" fill="#E48735" stroke="#E48735" stroke-width="2"/>
</svg>
